<?xml version="1.0" standalone="no"?>
<!DOCTYPE svg PUBLIC "-//W3C//DTD SVG 20010904//EN"
 "http://www.w3.org/TR/2001/REC-SVG-20010904/DTD/svg10.dtd">
<svg version="1.0" xmlns="http://www.w3.org/2000/svg"
 width="77.000000pt" height="78.000000pt" viewBox="0 0 77.000000 78.000000"
 preserveAspectRatio="xMidYMid meet">

<g transform="translate(0.000000,78.000000) scale(0.100000,-0.100000)"
fill="#000000" stroke="none">
<path d="M241 576 c-127 -106 -156 -136 -133 -136 5 0 69 47 141 105 72 58
135 105 141 105 6 0 69 -47 140 -105 121 -99 150 -118 150 -96 0 13 -277 241
-292 240 -7 0 -73 -51 -147 -113z"/>
<path d="M268 507 l-117 -92 -1 -157 0 -158 90 0 90 0 0 90 0 90 60 0 60 0 0
-90 0 -90 90 0 90 0 0 158 -1 157 -119 93 c-65 50 -120 92 -122 92 -1 -1 -56
-42 -120 -93z"/>
</g>
</svg>
